<svg width="22" height="22" viewBox="0 0 22 22" fill="none" xmlns="http://www.w3.org/2000/svg">
<path d="M18.3318 21.2C19.4019 20.843 20.1479 19.925 20.755 18.975C20.9598 18.6551 21.0718 18.2845 21.0783 17.9047C21.0848 17.5248 20.9857 17.1507 20.792 16.8239C20.5906 16.4749 20.3479 16.1516 20.0689 15.8609C19.2213 15.0116 18.2469 14.2991 17.1807 13.7488C16.6007 13.4498 15.9086 13.5368 15.3726 13.9078L13.2745 15.3598C13.2116 15.4039 13.1389 15.4319 13.0627 15.4414C12.9866 15.451 12.9093 15.4419 12.8374 15.4148C11.319 14.8325 9.94051 13.9363 8.79215 12.7848C7.64063 11.6368 6.74437 10.2587 6.16197 8.74061C6.13506 8.66871 6.12609 8.59132 6.13585 8.51517C6.14561 8.43902 6.1738 8.36639 6.21797 8.3036L7.67107 6.20552C8.0411 5.66951 8.1281 4.97748 7.82908 4.39846C7.27921 3.33193 6.56701 2.35728 5.71794 1.50936C5.42725 1.2304 5.10388 0.987627 4.75488 0.786337C4.42821 0.592794 4.05421 0.49377 3.67456 0.500304C3.29492 0.506837 2.92455 0.61867 2.60473 0.823338C1.65367 1.43036 0.734604 2.17638 0.37958 3.24742C-0.794499 6.77454 1.56666 11.7087 5.71794 15.8609C9.87022 20.012 14.8046 22.3731 18.3328 21.199L18.3318 21.2Z" fill="#377AF6"/>
</svg>
