<svg width="36" height="36" viewBox="0 0 36 36" fill="none" xmlns="http://www.w3.org/2000/svg">
<path fill-rule="evenodd" clip-rule="evenodd" d="M25.7776 25.7779C30.0733 21.4823 30.0733 14.5173 25.7776 10.2216C21.482 5.92591 14.517 5.92591 10.2213 10.2216C5.92562 14.5173 5.92562 21.4823 10.2213 25.7779C14.517 30.0736 21.482 30.0736 25.7776 25.7779ZM13.7568 15.1713C13.5693 14.9838 13.4639 14.7294 13.4639 14.4642C13.4639 14.199 13.5693 13.9447 13.7568 13.7571C13.9444 13.5696 14.1987 13.4642 14.4639 13.4642C14.7291 13.4642 14.9835 13.5696 15.171 13.7571L17.8227 16.4088C17.9203 16.5063 18.0787 16.5063 18.1762 16.4088L20.8279 13.7571C21.0154 13.5696 21.2698 13.4642 21.535 13.4642C21.8002 13.4642 22.0546 13.5696 22.2421 13.7571C22.4296 13.9447 22.535 14.199 22.535 14.4642C22.535 14.7294 22.4296 14.9838 22.2421 15.1713L19.5905 17.823C19.5436 17.8699 19.5172 17.9335 19.5172 17.9998C19.5172 18.0661 19.5436 18.1296 19.5905 18.1765L22.2421 20.8282C22.4296 21.0157 22.535 21.2701 22.535 21.5353C22.535 21.8005 22.4296 22.0549 22.2421 22.2424C22.0546 22.4299 21.8002 22.5353 21.535 22.5353C21.2698 22.5353 21.0154 22.4299 20.8279 22.2424L18.1762 19.5907C18.1294 19.5439 18.0658 19.5175 17.9995 19.5175C17.9332 19.5175 17.8696 19.5439 17.8227 19.5907L15.171 22.2424C14.9835 22.4299 14.7291 22.5353 14.4639 22.5353C14.1987 22.5353 13.9444 22.4299 13.7568 22.2424C13.5693 22.0549 13.4639 21.8005 13.4639 21.5353C13.4639 21.2701 13.5693 21.0157 13.7568 20.8282L16.4085 18.1765C16.4554 18.1296 16.4817 18.0661 16.4817 17.9998C16.4817 17.9335 16.4554 17.8699 16.4085 17.823L13.7568 15.1713Z" fill="#377AF6"/>
</svg>
