<svg width="27" height="28" viewBox="0 0 27 28" fill="none" xmlns="http://www.w3.org/2000/svg">
<path fill-rule="evenodd" clip-rule="evenodd" d="M10.0737 27.5C15.6373 27.5 20.1474 22.9899 20.1474 17.4263C20.1474 11.8628 15.6373 7.3526 10.0737 7.3526C4.51016 7.3526 0 11.8628 0 17.4263C0 22.9899 4.51016 27.5 10.0737 27.5ZM6.86255 17.0131C7.66927 17.0131 8.32324 16.1896 8.32324 15.1738C8.32324 14.158 7.66927 13.3345 6.86255 13.3345C6.05584 13.3345 5.40186 14.158 5.40186 15.1738C5.40186 16.1896 6.05584 17.0131 6.86255 17.0131ZM14.7657 15.1738C14.7657 16.1896 14.1117 17.0131 13.305 17.0131C12.4983 17.0131 11.8443 16.1896 11.8443 15.1738C11.8443 14.158 12.4983 13.3345 13.305 13.3345C14.1117 13.3345 14.7657 14.158 14.7657 15.1738ZM15.049 20.9142C15.3449 20.5297 15.273 19.9782 14.8886 19.6823C14.5041 19.3864 13.9526 19.4583 13.6567 19.8427C13.263 20.3543 12.7569 20.7684 12.1776 21.0531C11.5983 21.3377 10.9612 21.4853 10.3157 21.4844C9.67019 21.4835 9.03356 21.3341 8.45503 21.0477C7.8765 20.7614 7.3716 20.3458 6.97937 19.8332C6.6846 19.4479 6.13328 19.3745 5.74798 19.6693C5.36267 19.964 5.28929 20.5154 5.58407 20.9007C6.14003 21.6273 6.85572 22.2164 7.67576 22.6223C8.4958 23.0281 9.39821 23.2399 10.3132 23.2412C11.2282 23.2425 12.1312 23.0333 12.9524 22.6298C13.7736 22.2263 14.4909 21.6393 15.049 20.9142Z" fill="white"/>
<path d="M20.4732 2.97787C19.457 2.76488 18.6627 1.97062 18.4497 0.95438C18.3942 0.689581 18.1607 0.499878 17.8901 0.499878C17.6195 0.499878 17.3859 0.689512 17.3304 0.954345C17.1174 1.97055 16.3231 2.76481 15.3069 2.97783C15.0421 3.03333 14.8524 3.26689 14.8524 3.53746C14.8524 3.80802 15.0421 4.04158 15.3069 4.09708C16.3231 4.3101 17.1174 5.10439 17.3304 6.1206C17.3859 6.3854 17.6194 6.5751 17.89 6.5751C18.1606 6.5751 18.3941 6.38547 18.4496 6.1206C18.6627 5.10439 19.457 4.31013 20.4732 4.09711C20.738 4.04162 20.9277 3.80806 20.9277 3.53749C20.9277 3.26692 20.738 3.0334 20.4732 2.97787Z" fill="white"/>
<path d="M26.1286 8.86819C25.1883 8.67111 24.4534 7.93617 24.2562 6.99582C24.2049 6.75079 23.9888 6.57526 23.7384 6.57526C23.488 6.57526 23.2719 6.75073 23.2206 6.99578C23.0234 7.9361 22.2885 8.67104 21.3482 8.86815C21.1031 8.91951 20.9276 9.13562 20.9276 9.38598C20.9276 9.63634 21.1031 9.85246 21.3482 9.90381C22.2884 10.1009 23.0234 10.8359 23.2205 11.7762C23.2719 12.0212 23.4879 12.1968 23.7383 12.1968C23.9887 12.1968 24.2048 12.0213 24.2562 11.7762C24.4533 10.8359 25.1883 10.101 26.1286 9.90384C26.3736 9.85249 26.5492 9.63638 26.5492 9.38602C26.5492 9.13565 26.3737 8.91957 26.1286 8.86819Z" fill="white"/>
</svg>
