<svg width="36" height="36" viewBox="0 0 36 36" fill="none" xmlns="http://www.w3.org/2000/svg">
<path fill-rule="evenodd" clip-rule="evenodd" d="M6 11C6 9.93913 6.42143 8.92172 7.17157 8.17157C7.92172 7.42143 8.93913 7 10 7H18C19.067 7 20.035 7.417 20.753 8.098C21.27 8.589 21.904 9 22.619 9H26C27.0609 9 28.0783 9.42143 28.8284 10.1716C29.5786 10.9217 30 11.9391 30 13V25C30 26.0609 29.5786 27.0783 28.8284 27.8284C28.0783 28.5786 27.0609 29 26 29H18C16.9757 29.0012 15.9902 28.608 15.248 27.902C14.73 27.411 14.096 27 13.382 27H10C8.93913 27 7.92172 26.5786 7.17157 25.8284C6.42143 25.0783 6 24.0609 6 23V11ZM13.865 15.908C13.4962 15.5978 13.0256 15.4354 12.544 15.452C12.083 15.472 11.626 15.666 11.249 16.028C10.871 16.391 10.599 16.901 10.495 17.485C10.392 18.0624 10.4648 18.6575 10.704 19.193C10.94 19.713 11.315 20.108 11.75 20.333C12.1678 20.5537 12.6537 20.608 13.11 20.485C13.564 20.363 13.99 20.066 14.305 19.617C14.403 19.477 14.488 19.326 14.558 19.166C14.626 19.012 14.506 18.85 14.338 18.85H12.85C12.6246 18.85 12.4084 18.7604 12.249 18.601C12.0896 18.4416 12 18.2254 12 18C12 17.7746 12.0896 17.5584 12.249 17.399C12.4084 17.2396 12.6246 17.15 12.85 17.15H15.65C16.12 17.15 16.5 17.53 16.5 18C16.5037 18.9261 16.2234 19.8311 15.697 20.593C15.17 21.343 14.42 21.893 13.553 22.127C12.6858 22.3607 11.7625 22.2589 10.967 21.842C10.167 21.428 9.537 20.735 9.156 19.895C8.77512 19.0471 8.65839 18.1042 8.821 17.189C8.97479 16.2809 9.4124 15.4449 10.071 14.801C10.7158 14.171 11.5686 13.7983 12.469 13.753C13.3682 13.7178 14.2486 14.0163 14.941 14.591C15.1156 14.7337 15.2265 14.9399 15.2491 15.1643C15.2717 15.3887 15.2042 15.6129 15.0615 15.7875C14.9188 15.9621 14.7126 16.073 14.4882 16.0956C14.2638 16.1181 14.0396 16.0507 13.865 15.908ZM22.7 19.6C22.7 19.5337 22.7263 19.4701 22.7732 19.4232C22.8201 19.3763 22.8837 19.35 22.95 19.35H25.7C25.9254 19.35 26.1416 19.2604 26.301 19.101C26.4604 18.9416 26.55 18.7254 26.55 18.5C26.55 18.2746 26.4604 18.0584 26.301 17.899C26.1416 17.7396 25.9254 17.65 25.7 17.65H22.95C22.8837 17.65 22.8201 17.6237 22.7732 17.5768C22.7263 17.5299 22.7 17.4663 22.7 17.4V15.95C22.7 15.8837 22.7263 15.8201 22.7732 15.7732C22.8201 15.7263 22.8837 15.7 22.95 15.7H26.15C26.3754 15.7 26.5916 15.6104 26.751 15.451C26.9104 15.2916 27 15.0754 27 14.85C27 14.6246 26.9104 14.4084 26.751 14.249C26.5916 14.0896 26.3754 14 26.15 14H21.85C21.6246 14 21.4084 14.0896 21.249 14.249C21.0896 14.4084 21 14.6246 21 14.85V21.15C21 21.3754 21.0896 21.5916 21.249 21.751C21.4084 21.9104 21.6246 22 21.85 22C22.0754 22 22.2916 21.9104 22.451 21.751C22.6104 21.5916 22.7 21.3754 22.7 21.15V19.6ZM19.35 14.85C19.35 14.6246 19.2604 14.4084 19.101 14.249C18.9416 14.0896 18.7254 14 18.5 14C18.2746 14 18.0584 14.0896 17.899 14.249C17.7396 14.4084 17.65 14.6246 17.65 14.85V21.15C17.65 21.3754 17.7396 21.5916 17.899 21.751C18.0584 21.9104 18.2746 22 18.5 22C18.7254 22 18.9416 21.9104 19.101 21.751C19.2604 21.5916 19.35 21.3754 19.35 21.15V14.85Z" fill="#377AF6"/>
</svg>
