<svg width="37" height="36" viewBox="0 0 37 36" fill="none" xmlns="http://www.w3.org/2000/svg">
<path d="M18.4542 29C18.103 28.9996 17.76 28.8934 17.4698 28.6954C13.172 25.7778 11.3109 23.7773 10.2845 22.5266C8.09695 19.8606 7.04969 17.1235 7.07922 14.1595C7.11367 10.7628 9.83875 8 13.1539 8C15.5645 8 17.2341 9.35789 18.2065 10.4888C18.2373 10.5243 18.2753 10.5527 18.3181 10.5722C18.3608 10.5917 18.4072 10.6018 18.4542 10.6018C18.5012 10.6018 18.5476 10.5917 18.5904 10.5722C18.6331 10.5527 18.6712 10.5243 18.702 10.4888C19.6743 9.3568 21.3439 8 23.7545 8C27.0697 8 29.7948 10.7628 29.8292 14.16C29.8588 17.1246 28.8104 19.8617 26.624 22.5272C25.5975 23.7779 23.7365 25.7784 19.4386 28.6959C19.1484 28.8938 18.8054 28.9997 18.4542 29Z" fill="#EB5A96"/>
</svg>
