<svg width="36" height="36" viewBox="0 0 36 36" fill="none" xmlns="http://www.w3.org/2000/svg">
<path d="M12.8249 16.9249C13.3818 16.9249 13.916 16.7037 14.3098 16.3098C14.7036 15.916 14.9249 15.3819 14.9249 14.8249C14.9249 14.268 14.7036 13.7338 14.3098 13.34C13.916 12.9462 13.3818 12.7249 12.8249 12.7249C12.2679 12.7249 11.7338 12.9462 11.3399 13.34C10.9461 13.7338 10.7249 14.268 10.7249 14.8249C10.7249 15.3819 10.9461 15.916 11.3399 16.3098C11.7338 16.7037 12.2679 16.9249 12.8249 16.9249Z" fill="#377AF6"/>
<path fill-rule="evenodd" clip-rule="evenodd" d="M6 12.2V24.8C6 25.9139 6.4425 26.9822 7.23015 27.7698C8.0178 28.5575 9.08609 29 10.2 29H24.9C26.0139 29 27.0822 28.5575 27.8698 27.7698C28.6575 26.9822 29.1 25.9139 29.1 24.8V12.2C29.1 11.0861 28.6575 10.0178 27.8698 9.23015C27.0822 8.4425 26.0139 8 24.9 8H10.2C9.08609 8 8.0178 8.4425 7.23015 9.23015C6.4425 10.0178 6 11.0861 6 12.2ZM24.9 10.625H10.2C9.78228 10.625 9.38168 10.7909 9.08631 11.0863C8.79094 11.3817 8.625 11.7823 8.625 12.2V22.2233C8.62491 22.2694 8.63697 22.3148 8.65997 22.3547C8.68298 22.3947 8.71611 22.4279 8.75603 22.451C8.79595 22.4741 8.84125 22.4863 8.88737 22.4863C8.93349 22.4863 8.97881 22.4742 9.01875 22.4511L14.4 19.3431C15.3577 18.7902 16.4441 18.4991 17.55 18.4991C18.6559 18.4991 19.7423 18.7902 20.7 19.3431L26.0812 22.4511C26.1212 22.4742 26.1665 22.4863 26.2126 22.4863C26.2588 22.4863 26.3041 22.4741 26.344 22.451C26.3839 22.4279 26.417 22.3947 26.44 22.3547C26.463 22.3148 26.4751 22.2694 26.475 22.2233V12.2C26.475 11.7823 26.3091 11.3817 26.0137 11.0863C25.7183 10.7909 25.3177 10.625 24.9 10.625Z" fill="#377AF6"/>
</svg>
