<svg width="32" height="32" viewBox="0 0 32 32" fill="none" xmlns="http://www.w3.org/2000/svg">
<path fill-rule="evenodd" clip-rule="evenodd" d="M17 26.5C23.075 26.5 28 21.575 28 15.5C28 9.425 23.075 4.5 17 4.5C10.925 4.5 6 9.425 6 15.5C6 21.575 10.925 26.5 17 26.5ZM11.75 13.5C11.75 12.25 12.313 11.5 13.25 11.5C14.188 11.5 14.75 12.25 14.75 13.5C14.75 14.75 14.187 15.5 13.25 15.5C12.312 15.5 11.75 14.75 11.75 13.5ZM19.25 13.5C19.25 12.25 19.813 11.5 20.75 11.5C21.688 11.5 22.25 12.25 22.25 13.5C22.25 14.75 21.687 15.5 20.75 15.5C19.812 15.5 19.25 14.75 19.25 13.5ZM11.73 18.964C11.8147 18.8635 11.9183 18.7806 12.035 18.7202C12.1517 18.6597 12.2792 18.6229 12.4101 18.6117C12.5411 18.6006 12.6729 18.6154 12.7982 18.6552C12.9234 18.6951 13.0396 18.7592 13.14 18.844C14.2185 19.7542 15.5848 20.2524 16.996 20.25C18.466 20.25 19.809 19.722 20.852 18.844C20.9523 18.7585 21.0686 18.6936 21.1941 18.6532C21.3196 18.6127 21.4518 18.5975 21.5832 18.6084C21.7146 18.6193 21.8426 18.656 21.9597 18.7165C22.0769 18.777 22.1809 18.8601 22.2658 18.961C22.3507 19.0618 22.4148 19.1785 22.4545 19.3042C22.4941 19.43 22.5085 19.5623 22.4968 19.6937C22.4851 19.825 22.4476 19.9527 22.3864 20.0695C22.3251 20.1862 22.2414 20.2897 22.14 20.374C20.701 21.5878 18.8785 22.2525 16.996 22.25C15.1133 22.2522 13.2908 21.5872 11.852 20.373C11.6491 20.2022 11.5224 19.9578 11.4997 19.6936C11.477 19.4293 11.5602 19.1669 11.731 18.964H11.73Z" fill="#377AF6"/>
</svg>
