<svg width="36" height="36" viewBox="0 0 36 36" fill="none" xmlns="http://www.w3.org/2000/svg">
<path d="M19.488 5.95117C20.6423 5.95117 23.3253 6.71028 23.3253 11.335C23.3253 12.6231 23.1967 13.4272 23.1068 13.9845C23.089 14.0938 23.0722 14.2032 23.0566 14.3128L23.0556 14.318C23.0487 14.3715 23.0533 14.4259 23.0693 14.4774C23.0852 14.5289 23.112 14.5764 23.1479 14.6167C23.1838 14.6569 23.2279 14.689 23.2773 14.7107C23.3267 14.7324 23.3801 14.7433 23.4341 14.7426C28.0336 14.7426 30.4898 15.9596 30.4898 17.2028C30.4898 17.7601 30.2806 18.2694 29.9387 18.6615C29.9282 18.6738 29.9204 18.6883 29.9158 18.7039C29.9113 18.7196 29.9101 18.736 29.9124 18.7521C29.9147 18.7682 29.9203 18.7836 29.929 18.7974C29.9377 18.8111 29.9492 18.8229 29.9628 18.8319C30.2789 19.0317 30.5396 19.3079 30.7209 19.635C30.9022 19.9621 30.9982 20.3295 31 20.7035C31 21.6027 30.5013 22.3744 29.7296 22.7351C29.7151 22.7421 29.7021 22.752 29.6917 22.7643C29.6812 22.7766 29.6735 22.791 29.669 22.8065C29.6644 22.8219 29.6632 22.8382 29.6654 22.8542C29.6675 22.8702 29.673 22.8855 29.6815 22.8993C29.8979 23.2422 30.0255 23.6448 30.0255 24.0787C30.0255 25.0678 29.4536 25.8991 28.5554 26.2002C28.5271 26.21 28.5038 26.2305 28.4905 26.2573C28.4772 26.2841 28.475 26.315 28.4843 26.3435C28.5481 26.5358 28.5868 26.7408 28.5868 26.9541C28.5868 28.0582 26.7298 28.9543 22.3655 28.9543C19.1764 28.9543 16.9765 28.3845 16.1306 27.9756C15.5084 27.6745 14.7964 27.1287 14.7964 25.5289V19.1654C14.7964 17.367 15.7981 16.1646 16.7945 14.9684C17.7837 13.7827 18.7697 12.6012 18.7697 10.8456C18.7697 9.44451 18.6745 8.55575 18.6034 7.90016C18.5626 7.51539 18.5302 7.21007 18.5302 6.92985C18.5302 6.37882 18.9328 5.95326 19.489 5.95117H19.488ZM11.6596 17.4527H9.5684C8.5228 17.4527 8 20.2612 8 23.7263C8 27.1914 8.5228 29.9999 9.5684 29.9999H11.6596C11.9369 29.9999 12.2029 29.8897 12.3989 29.6937C12.595 29.4976 12.7052 29.2316 12.7052 28.9543V18.4983C12.7052 18.221 12.595 17.9551 12.3989 17.759C12.2029 17.5629 11.9369 17.4527 11.6596 17.4527Z" fill="#377AF6"/>
</svg>
