<svg width="29" height="18" viewBox="0 0 29 18" fill="none" xmlns="http://www.w3.org/2000/svg">
<path d="M4.78437 0C3.6611 0 2.58383 0.446217 1.78956 1.24049C0.995289 2.03476 0.549072 3.11202 0.549072 4.23529V13.7647C0.549072 14.888 0.995289 15.9652 1.78956 16.7595C2.58383 17.5538 3.6611 18 4.78437 18H15.3726C16.4959 18 17.5731 17.5538 18.3674 16.7595C19.1617 15.9652 19.6079 14.888 19.6079 13.7647V4.23529C19.6079 3.11202 19.1617 2.03476 18.3674 1.24049C17.5731 0.446217 16.4959 0 15.3726 0H4.78437ZM22.6033 12.7398L26.5453 14.7102C26.7067 14.7911 26.886 14.8294 27.0663 14.8214C27.2466 14.8135 27.4218 14.7596 27.5755 14.6648C27.7291 14.5701 27.8559 14.4377 27.9439 14.2801C28.032 14.1226 28.0783 13.9452 28.0785 13.7647V4.23529C28.0785 4.05474 28.0323 3.87718 27.9443 3.71949C27.8564 3.56181 27.7295 3.42924 27.5759 3.33439C27.4223 3.23953 27.2469 3.18554 27.0665 3.17755C26.8862 3.16955 26.7067 3.20782 26.5453 3.28871L22.6033 5.25918C22.3393 5.39122 22.1173 5.59422 21.9623 5.8454C21.8072 6.09658 21.7253 6.386 21.7255 6.68118V11.3188C21.7255 11.6138 21.8075 11.903 21.9626 12.154C22.1176 12.405 22.3395 12.6078 22.6033 12.7398Z" fill="#377AF6"/>
</svg>
