<svg width="37" height="36" viewBox="0 0 37 36" fill="none" xmlns="http://www.w3.org/2000/svg">
<path d="M18.3346 17.0303C18.1929 17.1721 18.0728 17.3338 17.978 17.5103L16.389 20.46C16.3365 20.5574 16.3169 20.6691 16.333 20.7785C16.3491 20.888 16.4 20.9893 16.4783 21.0674C16.5566 21.1456 16.658 21.1964 16.7674 21.2123C16.8769 21.2283 16.9886 21.2084 17.0859 21.1558L20.0356 19.5679C20.2113 19.4723 20.3727 19.3521 20.5145 19.2113L29.3853 10.3405C29.5285 10.1974 29.6421 10.0274 29.7196 9.8404C29.7971 9.65336 29.8371 9.45288 29.8371 9.25041C29.8372 9.04794 29.7973 8.84744 29.7199 8.66036C29.6424 8.47329 29.5289 8.30329 29.3858 8.16009C29.2426 8.01689 29.0727 7.90328 28.8857 7.82575C28.6986 7.74823 28.4981 7.7083 28.2957 7.70825C28.0932 7.7082 27.8927 7.74804 27.7056 7.82547C27.5185 7.90291 27.3486 8.01644 27.2054 8.15958L18.3346 17.0314V17.0303Z" fill="black"/>
<path d="M19.049 10.7916C19.3216 10.7916 19.583 10.6833 19.7758 10.4906C19.9685 10.2978 20.0768 10.0364 20.0768 9.76384V9.24995C20.0768 8.97737 19.9685 8.71595 19.7758 8.52321C19.583 8.33046 19.3216 8.22218 19.049 8.22218H12.8824C11.792 8.22218 10.7463 8.65531 9.97536 9.42629C9.20437 10.1973 8.77124 11.243 8.77124 12.3333V24.6666C8.77124 25.757 9.20437 26.8026 9.97536 27.5736C10.7463 28.3446 11.792 28.7777 12.8824 28.7777H25.2157C26.306 28.7777 27.3517 28.3446 28.1227 27.5736C28.8937 26.8026 29.3268 25.757 29.3268 24.6666V18.5C29.3268 18.2274 29.2185 17.966 29.0258 17.7732C28.833 17.5805 28.5716 17.4722 28.299 17.4722H27.7851C27.5125 17.4722 27.2511 17.5805 27.0584 17.7732C26.8656 17.966 26.7574 18.2274 26.7574 18.5V24.6666C26.7574 25.0755 26.5949 25.4676 26.3058 25.7567C26.0167 26.0459 25.6246 26.2083 25.2157 26.2083H12.8824C12.4735 26.2083 12.0813 26.0459 11.7922 25.7567C11.5031 25.4676 11.3407 25.0755 11.3407 24.6666V12.3333C11.3407 11.9244 11.5031 11.5323 11.7922 11.2432C12.0813 10.954 12.4735 10.7916 12.8824 10.7916H19.049Z" fill="black"/>
</svg>
